<svg id='basket' xmlns="http://www.w3.org/2000/svg" width="16" height="24" viewBox="0 0 16 24" fill="none">
<path fill-rule="evenodd" clip-rule="evenodd" d="M16 8.10988C16 11.7119 10.826 19.7973 8.79995 22.8253C8.41424 23.4018 7.58576 23.4018 7.20005 22.8253C5.17398 19.7973 0 11.7119 0 8.10988C0 3.63092 3.58172 0 8 0C12.4183 0 16 3.63092 16 8.10988ZM11.7333 8.10981C11.7333 10.2 10.0618 11.8944 7.99994 11.8944C5.93807 11.8944 4.2666 10.2 4.2666 8.10981C4.2666 6.01962 5.93807 4.3252 7.99994 4.3252C10.0618 4.3252 11.7333 6.01962 11.7333 8.10981Z" fill="white"/>
</svg>