<svg id='address' xmlns="http://www.w3.org/2000/svg" width="27" height="24" viewBox="0 0 27 24" fill="none">
<path fill-rule="evenodd" clip-rule="evenodd" d="M8.5 1.5C8.5 2.5 6 2.5 4.5 2.5C3 2.5 0.5 2.5 0.5 1.5C0.5 0.5 3 0.5 4.5 0.5C6 0.5 8.5 0.5 8.5 1.5ZM11.8212 16.119C11.3452 16.1949 10.8829 15.9206 10.7214 15.4665L7.48289 6.35812C7.24913 5.70067 7.74355 5.01199 8.44122 5.02324L25.8008 5.30317C26.425 5.31324 26.8875 5.88644 26.7654 6.49865L25.4106 13.2909C25.3288 13.701 25.0004 14.017 24.5874 14.0828L11.8212 16.119ZM13.6523 21.0331C13.6523 22.3178 12.6109 23.3593 11.3262 23.3593C10.0415 23.3593 9 22.3178 9 21.0331C9 19.7484 10.0415 18.707 11.3262 18.707C12.6109 18.707 13.6523 19.7484 13.6523 21.0331ZM22.957 23.3593C24.2417 23.3593 25.2832 22.3178 25.2832 21.0331C25.2832 19.7484 24.2417 18.707 22.957 18.707C21.6723 18.707 20.6309 19.7484 20.6309 21.0331C20.6309 22.3178 21.6723 23.3593 22.957 23.3593Z" fill="white"></path>
</svg>


<svg id='profile' xmlns="http://www.w3.org/2000/svg" width="16" height="24" viewBox="0 0 16 24" fill="none">
<path fill-rule="evenodd" clip-rule="evenodd" d="M16 8.10988C16 11.7119 10.826 19.7973 8.79995 22.8253C8.41424 23.4018 7.58576 23.4018 7.20005 22.8253C5.17398 19.7973 0 11.7119 0 8.10988C0 3.63092 3.58172 0 8 0C12.4183 0 16 3.63092 16 8.10988ZM11.7333 8.10981C11.7333 10.2 10.0618 11.8944 7.99994 11.8944C5.93807 11.8944 4.2666 10.2 4.2666 8.10981C4.2666 6.01962 5.93807 4.3252 7.99994 4.3252C10.0618 4.3252 11.7333 6.01962 11.7333 8.10981Z" fill="white"/>
</svg>


<svg id='basket' xmlns="http://www.w3.org/2000/svg" width="19" height="20" viewBox="0 0 19 20" fill="none">
<path fill-rule="evenodd" clip-rule="evenodd" d="M14.0207 4.78873C14.0207 7.55869 11.9361 9.70657 9.50596 9.70657C7.07586 9.70657 4.99117 7.55869 4.99117 4.81221C4.97931 2.10094 7.08777 0 9.50596 0C11.9241 0 14.0207 2.05399 14.0207 4.78873ZM0 18.4977C0 19.4836 0.64326 20 2.44201 20H16.558C18.3567 20 19 19.4836 19 18.4977C19 15.6338 15.3429 11.6901 9.50596 11.6901C3.65705 11.6901 0 15.6338 0 18.4977Z" fill="white"/>
</svg>